<?xml version="1.0" standalone="no"?><!DOCTYPE svg PUBLIC "-//W3C//DTD SVG 1.1//EN" "http://www.w3.org/Graphics/SVG/1.1/DTD/svg11.dtd"><svg t="1526217389456" class="icon" style="" viewBox="0 0 1024 1024" version="1.1" xmlns="http://www.w3.org/2000/svg" p-id="12507" xmlns:xlink="http://www.w3.org/1999/xlink" width="256" height="256"><defs><style type="text/css"></style></defs><path d="M512 85.333333C277.333333 85.333333 85.333333 277.333333 85.333333 512s192 426.666667 426.666667 426.666667 426.666667-192 426.666667-426.666667S746.666667 85.333333 512 85.333333zM170.666667 512c0-187.733333 153.6-341.333333 341.333333-341.333333 76.8 0 149.333333 25.6 209.066667 72.533333L243.2 721.066667C196.266667 661.333333 170.666667 588.8 170.666667 512z m341.333333 341.333333c-76.8 0-149.333333-25.6-209.066667-72.533333L780.8 302.933333C827.733333 362.666667 853.333333 435.2 853.333333 512c0 187.733333-153.6 341.333333-341.333333 341.333333z" p-id="12508" fill="#646464"></path></svg>